
        <svg xmlns="http://www.w3.org/2000/svg" xmlns:xlink="http://www.w3.org/1999/xlink" version="1.1" width="3181.818181818182" 
        height="2688.7391150427843" viewBox="0 0 3181.818181818182 2688.7391150427843">
			
			<g transform="scale(9.09090909090909) translate(10, 10)">
				<defs id="SvgjsDefs1388"></defs><g id="SvgjsG1389" featureKey="41S5F6-0" transform="matrix(2.623237442295461,0,0,2.623237442295461,46.95317931846901,-2.486828975213817)" fill="#a558c8"><g xmlns="http://www.w3.org/2000/svg"><path fill="#a558c8" d="M73.57,39.028c-0.053-0.216-0.25-0.37-0.472-0.37c-0.05,0-0.107,0.002-0.24,0.043   c-0.146,0.021-0.345,0.06-0.571,0.103c-0.734,0.138-1.852,0.385-2.374,0.289c-0.192-0.036-0.39-0.146-0.601-0.26l-0.183-0.099   c-0.428-0.221-0.842-0.306-1.195-0.365c-0.696-0.099-1.4-0.074-2.193,0.07c-0.344,0.06-0.709,0.156-1.11,0.285   c-2.448,0.817-4.1,2.6-4.012,4.294c-0.025,0.104-0.015,0.211,0.035,0.308c0.021,0.072,0.063,0.135,0.114,0.188   c0.592,0.927,1.852,1.472,3.403,1.472c0.782,0,1.613-0.139,2.417-0.405c0.36-0.122,0.717-0.27,1.057-0.442   c0.704-0.347,1.306-0.77,1.801-1.267c0.321-0.332,0.554-0.649,0.729-1.007l0.1-0.209c0.098-0.216,0.188-0.41,0.32-0.553   c0.278-0.308,1.422-0.874,2.032-1.177c0.221-0.108,0.411-0.202,0.5-0.253c0.051-0.02,0.12-0.05,0.188-0.088v0.002   c0.032-0.019,0.063-0.039,0.088-0.06c0.123-0.094,0.222-0.24,0.177-0.467C73.577,39.049,73.577,39.038,73.57,39.028z    M69.874,40.442c-0.234,0.258-0.37,0.55-0.487,0.81l-0.089,0.184c-0.125,0.259-0.303,0.499-0.547,0.751   c-0.415,0.419-0.929,0.778-1.542,1.079c-0.299,0.155-0.606,0.285-0.929,0.39c-1.958,0.653-4.05,0.336-4.688-0.657   c-0.088-1.231,1.362-2.686,3.344-3.346c0.321-0.106,0.647-0.199,0.979-0.254c0.688-0.123,1.303-0.149,1.869-0.066   c0.389,0.064,0.66,0.143,0.896,0.268l0.162,0.086c0.261,0.145,0.553,0.306,0.899,0.363c0.151,0.031,0.355,0.041,0.582,0.026   C70.136,40.202,69.981,40.323,69.874,40.442z"></path><path fill="#a558c8" d="M66.088,46.396c-0.031-0.014-0.066-0.021-0.1-0.026l0,0c-0.083-0.019-0.141-0.027-0.182-0.019   c-0.15-0.021-0.358-0.042-0.592-0.065c-0.689-0.07-1.967-0.204-2.335-0.392c-0.177-0.094-0.338-0.254-0.512-0.42l-0.147-0.148   c-0.287-0.271-0.615-0.49-1.04-0.69c-0.509-0.235-1.09-0.387-1.709-0.483c0.243-0.579,0.42-1.15,0.488-1.705   c0.053-0.452,0.039-0.86-0.041-1.25l-0.047-0.211c-0.056-0.237-0.103-0.446-0.089-0.644c0.033-0.418,0.595-1.578,0.894-2.201   c0.104-0.212,0.193-0.395,0.229-0.484c0.024-0.045,0.073-0.121,0.104-0.209h0.003c0.018-0.047,0.028-0.094,0.036-0.144   c0.019-0.151-0.019-0.315-0.203-0.442c-0.018-0.012-0.034-0.024-0.049-0.031c-0.378-0.204-0.642,0.145-0.702,0.227   c-0.097,0.104-0.225,0.251-0.371,0.415c-0.464,0.523-1.326,1.499-1.715,1.7c-0.164,0.088-0.384,0.121-0.618,0.161l-0.211,0.037   c-0.476,0.082-0.856,0.271-1.174,0.444c-0.583,0.329-1.148,0.801-1.688,1.398c-0.242,0.269-0.472,0.565-0.702,0.91   c-1.37,2.05-1.607,4.34-0.659,5.659c0.595,1.441,2.523,2.425,4.858,2.425c0.102,0,0.2,0,0.305-0.005   c0.407-0.013,0.779-0.049,1.146-0.116c0.806-0.149,1.483-0.379,2.083-0.706c0.284-0.161,0.655-0.396,0.988-0.762l0.146-0.168   c0.154-0.173,0.298-0.339,0.464-0.44c0.363-0.218,1.631-0.437,2.313-0.554c0.23-0.042,0.432-0.075,0.525-0.096   c0.144-0.014,0.592-0.05,0.612-0.486c0-0.018,0.004-0.036,0-0.054C66.385,46.565,66.239,46.45,66.088,46.396z M62.452,47.175   c-0.3,0.173-0.517,0.421-0.704,0.642l-0.136,0.149c-0.185,0.207-0.41,0.377-0.741,0.565c-0.497,0.271-1.079,0.464-1.784,0.598   c-0.327,0.06-0.662,0.091-0.999,0.104c-1.788,0.049-3.384-0.562-4.036-1.467c-0.008-0.135-0.055-0.268-0.17-0.356   c-0.026-0.026-0.044-0.064-0.067-0.091c-0.014-0.045-0.04-0.087-0.049-0.132c0-0.002-0.003-0.005-0.003-0.005   c-0.023-0.143-0.107-0.253-0.217-0.325c-0.425-1.04-0.104-2.72,0.879-4.194c0.188-0.281,0.388-0.548,0.615-0.795   c0.47-0.521,0.957-0.928,1.438-1.202c0.344-0.188,0.606-0.287,0.879-0.339l0.19-0.033c0.287-0.045,0.615-0.098,0.915-0.259   c0.144-0.077,0.303-0.19,0.477-0.339c-0.067,0.216-0.114,0.41-0.128,0.573c-0.025,0.348,0.048,0.66,0.11,0.939l0.044,0.188   c0.058,0.289,0.067,0.587,0.029,0.936c-0.071,0.574-0.256,1.177-0.553,1.789c-0.094,0.193-0.019,0.396,0.125,0.538   c0.044,0.199,0.177,0.367,0.394,0.389c0.676,0.07,1.288,0.229,1.807,0.472c0.326,0.151,0.572,0.319,0.779,0.514l0.139,0.136   c0.204,0.201,0.434,0.428,0.746,0.593c0.144,0.072,0.329,0.135,0.551,0.189C62.766,47.019,62.588,47.092,62.452,47.175z"></path><path fill="#a558c8" d="M58.598,50.993c-0.031-0.009-0.063-0.01-0.096-0.01c-0.072-0.01-0.146,0-0.175,0.005   c-0.138,0.005-0.365,0.005-0.606,0.008c-0.684,0.019-1.965,0.044-2.355-0.097c-0.188-0.066-0.365-0.206-0.553-0.349l-0.17-0.128   c-0.318-0.235-0.67-0.413-1.122-0.559c-0.537-0.167-1.115-0.245-1.752-0.261c0.164-0.605,0.273-1.194,0.271-1.758   c-0.011-0.463-0.07-0.854-0.2-1.239l-0.063-0.164c-0.083-0.232-0.169-0.454-0.177-0.663c-0.021-0.416,0.391-1.634,0.61-2.292   c0.074-0.222,0.143-0.415,0.169-0.514c0.021-0.048,0.056-0.13,0.076-0.224h0.003c0.014-0.053,0.019-0.105,0.014-0.158   c0-0.146-0.063-0.303-0.268-0.401c-0.015-0.007-0.025-0.014-0.038-0.018c-0.003,0-0.003,0-0.003,0   c-0.418-0.161-0.624,0.229-0.665,0.308c-0.089,0.125-0.204,0.293-0.333,0.485c-0.392,0.57-1.117,1.635-1.468,1.875   c-0.157,0.109-0.365,0.172-0.591,0.24l-0.211,0.063c-0.472,0.148-0.84,0.389-1.113,0.59c-0.537,0.404-1.024,0.923-1.494,1.599   c-0.211,0.3-0.401,0.623-0.584,0.991c-1.095,2.191-1.052,4.48,0.037,5.678c0.654,1.168,2.239,1.881,4.138,1.881   c0.423,0,0.864-0.035,1.313-0.107c0.394-0.065,0.762-0.149,1.119-0.265c0.781-0.247,1.426-0.558,1.974-0.959   c0.266-0.196,0.607-0.473,0.887-0.876l0.118-0.173c0.133-0.197,0.258-0.387,0.419-0.511c0.328-0.261,1.57-0.641,2.238-0.843   c0.216-0.064,0.401-0.125,0.493-0.156c0.158-0.036,0.576-0.131,0.543-0.559c0-0.018-0.003-0.039-0.009-0.063   C58.921,51.118,58.751,51.024,58.598,50.993z M55.105,52.228c-0.28,0.214-0.467,0.487-0.628,0.732l-0.104,0.157   c-0.158,0.226-0.359,0.422-0.669,0.648c-0.46,0.337-1.013,0.603-1.688,0.819c-0.323,0.099-0.648,0.173-0.982,0.227   c-1.747,0.29-3.411-0.116-4.184-0.936c-0.016-0.118-0.067-0.224-0.161-0.301c-0.021-0.022-0.042-0.041-0.075-0.057   c-0.024-0.021-0.04-0.049-0.063-0.07c-0.018-0.034-0.049-0.067-0.061-0.102c-0.003-0.01-0.005-0.021-0.008-0.028   c-0.041-0.137-0.138-0.235-0.261-0.293c-0.545-0.978-0.44-2.682,0.353-4.269c0.162-0.319,0.327-0.604,0.512-0.865   c0.409-0.59,0.826-1.035,1.277-1.373c0.31-0.229,0.558-0.361,0.827-0.446l0.193-0.059c0.276-0.081,0.589-0.173,0.865-0.372   c0.136-0.091,0.279-0.224,0.434-0.394c-0.042,0.226-0.063,0.42-0.055,0.579c0.016,0.362,0.136,0.679,0.24,0.954l0.052,0.146   c0.094,0.277,0.141,0.574,0.145,0.925c0.001,0.583-0.106,1.201-0.324,1.845c-0.068,0.207,0.033,0.399,0.198,0.524   c0.068,0.186,0.213,0.333,0.422,0.333c0.003,0,0.012,0,0.014-0.003c0.671,0.003,1.298,0.066,1.854,0.237   c0.339,0.113,0.606,0.245,0.837,0.416l0.153,0.114c0.229,0.178,0.488,0.376,0.816,0.495c0.151,0.058,0.342,0.092,0.569,0.12   C55.396,52.028,55.229,52.128,55.105,52.228z"></path><path fill="#a558c8" d="M40.174,61.93c0.654,0.721,1.729,1.129,3.003,1.129c0.82,0,1.714-0.16,2.614-0.494   c0.403-0.151,0.737-0.305,1.046-0.474c0.717-0.392,1.291-0.824,1.758-1.322c0.222-0.245,0.505-0.585,0.698-1.033l0.087-0.196   c0.091-0.221,0.172-0.425,0.305-0.573c0.277-0.323,1.424-0.937,2.04-1.262c0.199-0.108,0.371-0.199,0.454-0.251   c0.055-0.021,0.148-0.065,0.236-0.134c0.012-0.009,0.019-0.015,0.024-0.021c0.125-0.102,0.222-0.258,0.164-0.481   c-0.006-0.024-0.014-0.048-0.021-0.074c-0.097-0.238-0.282-0.298-0.441-0.298c-0.03-0.007-0.063,0-0.099,0.003v0.002   c-0.075,0.012-0.139,0.029-0.17,0.043c-0.146,0.026-0.342,0.068-0.567,0.119c-0.679,0.152-1.925,0.434-2.355,0.362   c-0.196-0.03-0.389-0.128-0.61-0.233l-0.192-0.094c-0.354-0.168-0.746-0.274-1.206-0.334c-0.555-0.063-1.15-0.02-1.768,0.082   c0.046-0.623,0.033-1.226-0.079-1.774c-0.093-0.444-0.231-0.826-0.433-1.177l-0.097-0.161c-0.131-0.206-0.25-0.405-0.297-0.603   c-0.103-0.409,0.067-1.692,0.159-2.382c0.028-0.227,0.057-0.423,0.065-0.531c0.008-0.05,0.026-0.139,0.026-0.232h0.005   c0.005-0.063-0.005-0.123-0.023-0.178c-0.034-0.14-0.13-0.272-0.35-0.322c-0.019-0.003-0.034-0.006-0.052-0.012   c-0.404-0.05-0.54,0.343-0.563,0.439c-0.071,0.146-0.16,0.353-0.262,0.589c-0.269,0.621-0.764,1.775-1.06,2.073   c-0.133,0.142-0.334,0.242-0.542,0.352l-0.188,0.1c-0.345,0.193-0.642,0.433-0.968,0.791c-0.457,0.502-0.838,1.11-1.165,1.858   c-0.149,0.331-0.272,0.688-0.383,1.082C38.306,58.716,38.819,60.992,40.174,61.93z M39.91,56.567   c0.096-0.351,0.202-0.661,0.333-0.947c0.287-0.655,0.61-1.177,0.991-1.597c0.255-0.279,0.475-0.459,0.719-0.592l0.168-0.089   c0.26-0.136,0.555-0.29,0.792-0.54c0.114-0.115,0.229-0.273,0.348-0.47c0.002,0.229,0.021,0.424,0.063,0.58   c0.083,0.347,0.258,0.633,0.412,0.882l0.087,0.143c0.146,0.256,0.245,0.535,0.319,0.879c0.116,0.568,0.126,1.198,0.037,1.869   c-0.025,0.217,0.11,0.387,0.292,0.476c0.107,0.166,0.28,0.28,0.496,0.247c0.665-0.148,1.289-0.189,1.862-0.127   c0.352,0.044,0.638,0.122,0.902,0.245l0.174,0.087c0.259,0.127,0.547,0.271,0.895,0.324c0.156,0.026,0.354,0.026,0.581,0.008   c-0.185,0.132-0.332,0.261-0.437,0.384c-0.228,0.261-0.354,0.566-0.466,0.831L48.4,59.345c-0.111,0.251-0.269,0.481-0.521,0.767   c-0.388,0.413-0.884,0.781-1.512,1.125c-0.296,0.164-0.602,0.298-0.919,0.414c-1.666,0.624-3.382,0.538-4.289-0.12   c-0.052-0.128-0.134-0.236-0.27-0.286c-0.041-0.021-0.072-0.054-0.109-0.079c-0.021-0.026-0.049-0.046-0.067-0.075   c-0.011-0.028-0.025-0.058-0.047-0.081c-0.06-0.088-0.156-0.124-0.251-0.156C39.67,60.012,39.434,58.299,39.91,56.567z"></path><path fill="#a558c8" d="M35.041,59.801l-0.193,0.104c-0.344,0.19-0.646,0.437-0.976,0.793c-0.448,0.498-0.832,1.105-1.163,1.857   c-0.148,0.338-0.276,0.692-0.378,1.081c-0.665,2.407-0.153,4.683,1.2,5.618c0.657,0.729,1.731,1.134,3.004,1.134   c0.821,0,1.717-0.161,2.613-0.495c0.395-0.143,0.735-0.3,1.048-0.476c0.72-0.393,1.295-0.822,1.756-1.32   c0.224-0.245,0.504-0.584,0.698-1.03l0.09-0.206c0.089-0.217,0.174-0.417,0.305-0.566c0.276-0.325,1.427-0.94,2.048-1.268   c0.194-0.104,0.362-0.196,0.442-0.245c0.137-0.057,0.541-0.237,0.42-0.652c-0.002-0.021-0.011-0.039-0.018-0.058   c-0.094-0.237-0.28-0.299-0.438-0.299c-0.034-0.009-0.063,0.003-0.094,0.008c-0.08,0.006-0.146,0.029-0.175,0.041   c-0.146,0.028-0.345,0.072-0.57,0.12c-0.674,0.151-1.926,0.438-2.351,0.362c-0.199-0.031-0.389-0.125-0.612-0.234l-0.194-0.095   c-0.356-0.166-0.751-0.276-1.204-0.328c-0.55-0.063-1.15-0.021-1.771,0.078c0.05-0.626,0.04-1.228-0.073-1.774   c-0.091-0.445-0.23-0.826-0.433-1.175l-0.094-0.154c-0.13-0.211-0.253-0.41-0.302-0.612c-0.103-0.41,0.067-1.68,0.158-2.362   c0.029-0.235,0.055-0.439,0.063-0.55c0.013-0.048,0.031-0.137,0.031-0.236h0.006c0.002-0.06-0.006-0.118-0.024-0.17   c-0.038-0.144-0.131-0.273-0.344-0.328c-0.013-0.003-0.023-0.006-0.037-0.006c-0.414-0.072-0.558,0.334-0.589,0.433   c-0.066,0.145-0.153,0.348-0.254,0.579c-0.268,0.624-0.767,1.787-1.063,2.084C35.445,59.592,35.249,59.69,35.041,59.801z    M36.621,59.662c0,0.23,0.021,0.425,0.058,0.581c0.086,0.351,0.264,0.635,0.42,0.887l0.08,0.139   c0.149,0.253,0.249,0.533,0.321,0.877c0.115,0.563,0.128,1.19,0.04,1.872c-0.025,0.214,0.109,0.383,0.292,0.469   c0.102,0.173,0.278,0.284,0.493,0.249c0.665-0.147,1.296-0.188,1.861-0.121c0.353,0.042,0.637,0.117,0.905,0.24l0.172,0.086   c0.261,0.13,0.548,0.271,0.895,0.326c0.157,0.024,0.356,0.029,0.584,0.008c-0.182,0.135-0.333,0.262-0.436,0.382   c-0.227,0.262-0.354,0.563-0.466,0.826l-0.081,0.192c-0.112,0.254-0.269,0.482-0.524,0.765c-0.386,0.415-0.879,0.782-1.51,1.126   c-0.294,0.164-0.6,0.298-0.918,0.415c-1.669,0.623-3.386,0.537-4.295-0.126c-0.051-0.125-0.131-0.232-0.265-0.278   c-0.036-0.021-0.069-0.058-0.106-0.08c-0.021-0.029-0.055-0.053-0.07-0.084c-0.014-0.021-0.023-0.041-0.039-0.065   c-0.063-0.091-0.162-0.139-0.261-0.17c-0.745-0.848-0.981-2.556-0.504-4.281c0.094-0.343,0.206-0.653,0.334-0.947   c0.29-0.655,0.613-1.178,0.989-1.595c0.258-0.278,0.477-0.456,0.727-0.596l0.178-0.093c0.256-0.135,0.543-0.286,0.78-0.531   C36.386,60.015,36.504,59.858,36.621,59.662z"></path><path fill="#a558c8" d="M31.65,71.604c0.209-0.173,0.24-0.478,0.067-0.686c-0.169-0.211-0.477-0.24-0.683-0.071   c-0.287,0.235-7.107,5.899-8.197,17.672c-0.023,0.266,0.173,0.506,0.438,0.53c0.018,0,0.033,0.002,0.047,0.002   c0.248,0,0.462-0.188,0.482-0.44C24.859,77.264,31.583,71.658,31.65,71.604z"></path><path fill="#a558c8" d="M57.13,60.174C46.587,82.109,28.341,79.876,28.158,79.846c-0.255-0.031-0.512,0.148-0.551,0.418   c-0.033,0.266,0.151,0.509,0.415,0.546c0.036,0.007,0.654,0.081,1.708,0.081c4.918,0,19.33-1.685,28.274-20.291   c0.117-0.242,0.016-0.532-0.227-0.65C57.531,59.835,57.244,59.934,57.13,60.174z"></path><path fill="#a558c8" d="M40.113,30.957c2.047,4.399,3.982,8.551,1.221,12.914c-0.144,0.229-0.076,0.529,0.151,0.673   c0.08,0.05,0.169,0.079,0.26,0.079c0.158,0,0.318-0.084,0.413-0.23c3.043-4.813,0.907-9.403-1.159-13.847   c-0.412-0.879-0.82-1.761-1.188-2.64c-0.104-0.248-0.392-0.364-0.636-0.26c-0.248,0.104-0.367,0.386-0.262,0.636   C39.284,29.174,39.698,30.063,40.113,30.957z"></path><path fill="#a558c8" d="M20.999,2.329c0.256,0.637,0.733,1.815,0.733,2.236c0.005,0.192-0.06,0.403-0.128,0.626l-0.063,0.222   c-0.107,0.378-0.148,0.769-0.129,1.24c0.04,0.696,0.207,1.417,0.501,2.131c0.141,0.357,0.309,0.707,0.502,1.041   c1.103,1.924,2.813,3.168,4.357,3.168c0.237,0,0.465-0.028,0.684-0.091c0.083-0.005,0.167-0.031,0.24-0.079   c0.063-0.035,0.117-0.082,0.159-0.146c1.247-1.183,1.215-3.649-0.088-5.925c-0.209-0.362-0.418-0.673-0.64-0.949   c-0.509-0.648-1.03-1.142-1.597-1.516c-0.297-0.189-0.662-0.398-1.137-0.521l-0.188-0.044c-0.235-0.051-0.459-0.104-0.637-0.211   c-0.362-0.222-1.155-1.252-1.583-1.805C21.85,1.53,21.729,1.379,21.667,1.3c-0.109-0.164-0.231-0.352-0.506-0.352   c-0.099,0-0.201,0.031-0.279,0.092c-0.058,0.036-0.104,0.089-0.138,0.144c-0.148,0.239-0.047,0.434,0.027,0.575   C20.824,1.907,20.907,2.103,20.999,2.329z M22.48,5.673l0.055-0.198c0.083-0.269,0.18-0.576,0.175-0.921   c-0.005-0.161-0.037-0.355-0.089-0.576c0.159,0.156,0.308,0.28,0.441,0.362c0.307,0.191,0.637,0.269,0.929,0.331l0.166,0.04   c0.264,0.066,0.519,0.188,0.848,0.395c0.469,0.312,0.918,0.733,1.361,1.301c0.202,0.257,0.388,0.542,0.559,0.835   c1.043,1.812,1.154,3.866,0.268,4.725c-1.17,0.316-2.915-0.851-3.938-2.629c-0.164-0.287-0.311-0.594-0.438-0.915   c-0.253-0.62-0.398-1.233-0.434-1.814C22.374,6.247,22.402,5.949,22.48,5.673z"></path><path fill="#a558c8" d="M26.411,13.46c-0.448-0.128-0.833-0.19-1.234-0.173l-0.206,0.009c-0.242,0.016-0.469,0.024-0.662-0.023   c-0.401-0.102-1.442-0.853-1.997-1.252c-0.195-0.144-0.368-0.267-0.449-0.317c-0.041-0.036-0.104-0.089-0.183-0.137v-0.001   c-0.041-0.026-0.086-0.045-0.131-0.06c-0.143-0.048-0.318-0.046-0.481,0.113c-0.011,0.017-0.024,0.026-0.037,0.043   c-0.279,0.339,0.028,0.665,0.096,0.732c0.093,0.12,0.221,0.279,0.363,0.462c0.43,0.544,1.23,1.547,1.361,1.959   c0.054,0.179,0.054,0.401,0.05,0.636v0.223c0.004,0.382,0.075,0.761,0.234,1.23c0.227,0.634,0.585,1.257,1.084,1.9   c0.22,0.285,0.473,0.562,0.774,0.851c1.304,1.249,2.843,1.931,4.15,1.931c0.466,0,0.889-0.11,1.275-0.29   c1.606-0.331,2.97-2.214,3.314-4.679c0.055-0.412,0.086-0.789,0.08-1.146c-0.005-0.803-0.113-1.532-0.333-2.174   c-0.118-0.332-0.279-0.725-0.577-1.104l-0.138-0.173c-0.146-0.183-0.287-0.354-0.354-0.538c-0.151-0.398-0.149-1.698-0.146-2.397   c0-0.223,0-0.415-0.003-0.515c0.011-0.146,0.047-0.586-0.372-0.684c-0.021-0.005-0.042-0.008-0.063-0.012   c-0.244-0.027-0.391,0.109-0.467,0.24c-0.019,0.03-0.031,0.06-0.042,0.088h0.002c-0.031,0.077-0.043,0.147-0.047,0.177   c-0.047,0.144-0.104,0.345-0.167,0.571c-0.19,0.665-0.543,1.9-0.796,2.231c-0.119,0.159-0.292,0.282-0.494,0.426l-0.178,0.125   c-0.315,0.237-0.597,0.532-0.857,0.908c-0.32,0.459-0.568,1.001-0.77,1.596C27.483,13.901,26.945,13.625,26.411,13.46z    M28.799,14.9c0.188-0.655,0.454-1.228,0.78-1.7c0.204-0.293,0.407-0.509,0.642-0.683l0.16-0.113   c0.231-0.167,0.498-0.352,0.709-0.628c0.097-0.131,0.19-0.304,0.282-0.509c0.028,0.219,0.072,0.409,0.129,0.556   c0.118,0.331,0.326,0.586,0.512,0.812l0.127,0.156c0.165,0.217,0.293,0.464,0.42,0.826c0.184,0.538,0.276,1.163,0.28,1.862   c0.002,0.337-0.023,0.671-0.07,1.001c-0.245,1.761-1.127,3.23-2.137,3.723c-0.133-0.019-0.268,0.001-0.381,0.101   c-0.033,0.026-0.083,0.037-0.122,0.057c-0.036,0.012-0.072,0.026-0.109,0.026c-0.007,0-0.019,0-0.026,0   c-0.133,0-0.246,0.063-0.336,0.153c-1.096,0.245-2.701-0.355-3.988-1.587c-0.248-0.237-0.475-0.478-0.681-0.746   c-0.438-0.563-0.746-1.097-0.936-1.627c-0.124-0.36-0.178-0.639-0.182-0.92v-0.194c0.009-0.291,0.011-0.62-0.095-0.944   c-0.048-0.153-0.134-0.334-0.252-0.531c0.204,0.108,0.387,0.188,0.544,0.227c0.333,0.082,0.664,0.064,0.95,0.054l0.191-0.013   c0.289,0.01,0.58,0.036,0.921,0.135c0.55,0.167,1.11,0.454,1.666,0.854c0.175,0.127,0.384,0.089,0.551-0.031   C28.55,15.211,28.74,15.107,28.799,14.9z"></path><path fill="#a558c8" d="M32.237,21.065l-0.165,0.089c-0.344,0.192-0.652,0.445-0.97,0.789c-0.373,0.415-0.688,0.93-0.96,1.487   c-0.479-0.401-0.975-0.738-1.488-0.971c-0.42-0.183-0.814-0.293-1.206-0.329l-0.216-0.016c-0.244-0.018-0.456-0.034-0.642-0.106   c-0.386-0.156-1.321-1.025-1.823-1.494c-0.179-0.164-0.33-0.311-0.411-0.37c-0.032-0.039-0.084-0.1-0.154-0.154   c-0.036-0.031-0.078-0.06-0.123-0.08c-0.138-0.066-0.308-0.088-0.492,0.049c-0.016,0.012-0.031,0.023-0.042,0.034   c-0.323,0.297-0.07,0.655,0,0.746c0.072,0.126,0.178,0.303,0.297,0.498c0.362,0.593,1.033,1.693,1.106,2.117   c0.037,0.189,0.003,0.416-0.027,0.653l-0.026,0.199c-0.061,0.487,0.01,0.923,0.078,1.257c0.144,0.652,0.416,1.314,0.84,2.022   c0.189,0.325,0.409,0.633,0.657,0.938c1.268,1.562,2.913,2.465,4.314,2.465c0.317,0,0.617-0.065,0.901-0.159   c1.619-0.148,3.192-1.837,3.84-4.222c0.106-0.392,0.18-0.759,0.221-1.124c0.1-0.819,0.079-1.534-0.058-2.198   c-0.069-0.321-0.182-0.747-0.433-1.168l-0.119-0.194c-0.125-0.205-0.235-0.386-0.279-0.575c-0.105-0.41,0.065-1.693,0.154-2.385   c0.028-0.225,0.052-0.425,0.06-0.517c0.031-0.144,0.125-0.578-0.281-0.725c-0.016-0.012-0.028-0.014-0.045-0.018   c-0.247-0.067-0.396,0.036-0.495,0.156c-0.026,0.028-0.047,0.063-0.065,0.096h0.003c-0.041,0.073-0.065,0.141-0.079,0.177   c-0.057,0.133-0.136,0.313-0.222,0.521c-0.273,0.642-0.778,1.836-1.077,2.138C32.659,20.841,32.453,20.951,32.237,21.065z    M33.849,20.905c0,0.225,0.021,0.418,0.061,0.572c0.076,0.336,0.25,0.618,0.399,0.858l0.108,0.177   c0.141,0.24,0.238,0.504,0.318,0.877c0.114,0.553,0.128,1.168,0.039,1.882c-0.034,0.318-0.097,0.639-0.19,0.982   c-0.464,1.703-1.513,3.051-2.567,3.419c-0.121-0.038-0.256-0.031-0.379,0.038c-0.016,0.007-0.031,0.015-0.042,0.026   c-0.047,0.023-0.102,0.031-0.15,0.049c-0.013,0-0.032,0-0.047-0.002c-0.023-0.004-0.042,0-0.073-0.004   c-0.131-0.019-0.25,0.031-0.347,0.115c-1.122,0.099-2.637-0.708-3.754-2.086c-0.214-0.261-0.406-0.53-0.579-0.821   c-0.364-0.615-0.602-1.185-0.719-1.727c-0.081-0.385-0.103-0.663-0.068-0.938l0.026-0.18c0.042-0.294,0.086-0.623,0.021-0.964   c-0.027-0.161-0.09-0.347-0.181-0.556c0.188,0.128,0.354,0.229,0.506,0.286c0.32,0.131,0.644,0.154,0.926,0.176l0.203,0.015   c0.287,0.028,0.574,0.107,0.895,0.245c0.533,0.242,1.052,0.596,1.549,1.056c0.151,0.146,0.368,0.134,0.543,0.041   c0.203,0.019,0.409-0.057,0.498-0.258c0.268-0.625,0.598-1.163,0.98-1.585c0.24-0.267,0.472-0.456,0.721-0.597l0.148-0.079   c0.261-0.139,0.558-0.296,0.809-0.556C33.617,21.259,33.732,21.099,33.849,20.905z"></path><path fill="#a558c8" d="M35.597,28.197l0.002,0.004c-0.057,0.065-0.096,0.124-0.114,0.161c-0.084,0.118-0.193,0.281-0.321,0.467   c-0.391,0.575-1.116,1.65-1.473,1.894c-0.165,0.114-0.387,0.178-0.619,0.25l-0.188,0.055c-0.381,0.132-0.737,0.32-1.101,0.593   c-0.451,0.338-0.854,0.779-1.235,1.271c-0.392-0.484-0.809-0.915-1.27-1.24c-0.384-0.262-0.735-0.437-1.117-0.552l-0.208-0.056   c-0.238-0.069-0.443-0.124-0.61-0.228c-0.353-0.229-1.111-1.277-1.519-1.839c-0.136-0.185-0.255-0.352-0.313-0.425   c-0.026-0.044-0.071-0.12-0.136-0.192h0.002c-0.033-0.039-0.07-0.074-0.114-0.103c-0.12-0.092-0.279-0.136-0.482-0.031   c-0.022,0.011-0.047,0.026-0.067,0.042c-0.336,0.231-0.162,0.623-0.117,0.712c0.047,0.139,0.115,0.321,0.19,0.532   c0.245,0.657,0.691,1.875,0.683,2.305c0,0.194-0.073,0.403-0.151,0.628l-0.067,0.197c-0.152,0.467-0.167,0.908-0.165,1.247   c0.014,0.67,0.157,1.376,0.431,2.146c0.118,0.334,0.271,0.681,0.468,1.055c1.076,2.028,2.801,3.304,4.337,3.304   c0.099,0,0.195-0.028,0.294-0.042c0.102,0.014,0.204,0.033,0.306,0.033c1.555,0,3.286-1.338,4.313-3.436   c0.188-0.368,0.331-0.719,0.44-1.058c0.247-0.783,0.372-1.492,0.367-2.171c-0.011-0.479-0.069-0.86-0.2-1.232l-0.076-0.2   c-0.083-0.219-0.161-0.428-0.169-0.634c-0.023-0.404,0.381-1.609,0.595-2.254c0.08-0.237,0.148-0.445,0.172-0.54   c0.063-0.146,0.233-0.521-0.104-0.754c-0.019-0.013-0.034-0.024-0.055-0.034c-0.214-0.117-0.375-0.064-0.496,0.024   C35.665,28.122,35.63,28.156,35.597,28.197z M34.743,35.594c-0.091,0.292-0.216,0.596-0.383,0.926   c-0.782,1.592-2.072,2.705-3.186,2.858c-0.104-0.05-0.221-0.076-0.335-0.044c-0.026,0.006-0.052,0.015-0.076,0.026   c-0.037,0.013-0.075,0.005-0.112,0.016c-0.044-0.011-0.091-0.003-0.133-0.016c-0.13-0.047-0.261-0.023-0.383,0.036   c-1.125-0.112-2.457-1.188-3.289-2.761c-0.181-0.336-0.309-0.629-0.413-0.923c-0.24-0.677-0.362-1.28-0.373-1.842   c-0.008-0.387,0.028-0.665,0.115-0.923l0.06-0.182c0.093-0.277,0.206-0.59,0.206-0.932c0.002-0.165-0.021-0.359-0.07-0.584   c0.159,0.167,0.307,0.297,0.44,0.383c0.295,0.186,0.608,0.271,0.882,0.349l0.19,0.056c0.275,0.078,0.545,0.214,0.831,0.415   c0.47,0.328,0.923,0.792,1.314,1.333c0.126,0.174,0.342,0.205,0.532,0.145c0.195,0.056,0.41,0.017,0.533-0.158   c0.375-0.561,0.808-1.024,1.27-1.372c0.284-0.21,0.546-0.354,0.818-0.445l0.173-0.05c0.279-0.086,0.6-0.183,0.884-0.38   c0.136-0.092,0.278-0.226,0.436-0.397c-0.041,0.221-0.063,0.412-0.053,0.568c0.012,0.357,0.128,0.668,0.232,0.939l0.067,0.176   c0.094,0.275,0.136,0.552,0.144,0.924C35.069,34.303,34.968,34.907,34.743,35.594z"></path><path fill="#a558c8" d="M36.301,37.97c-0.003-0.006-0.005-0.009-0.009-0.009c-0.2-0.112-0.372-0.069-0.489,0.018   c-0.042,0.026-0.081,0.061-0.116,0.094l0.006,0.007c-0.06,0.066-0.099,0.138-0.12,0.171c-0.089,0.121-0.198,0.285-0.328,0.48   c-0.39,0.574-1.117,1.641-1.464,1.877c-0.17,0.116-0.391,0.183-0.629,0.257l-0.182,0.055c-0.378,0.125-0.735,0.317-1.098,0.589   c-0.448,0.334-0.855,0.776-1.236,1.273c-0.394-0.487-0.816-0.913-1.271-1.237c-0.37-0.261-0.734-0.44-1.119-0.555l-0.21-0.06   c-0.238-0.064-0.443-0.121-0.608-0.226c-0.349-0.23-1.108-1.276-1.516-1.836c-0.136-0.188-0.255-0.349-0.313-0.428   c-0.029-0.044-0.076-0.12-0.136-0.19v-0.002c-0.031-0.04-0.065-0.069-0.105-0.094c-0.119-0.092-0.278-0.142-0.486-0.042   c-0.021,0.011-0.045,0.024-0.065,0.036c-0.347,0.235-0.167,0.63-0.128,0.72c0.049,0.136,0.111,0.312,0.189,0.517   c0.24,0.66,0.696,1.888,0.687,2.319c0,0.186-0.071,0.396-0.146,0.613l-0.07,0.214c-0.151,0.464-0.17,0.886-0.167,1.249   c0.016,0.666,0.159,1.389,0.431,2.144c0.12,0.339,0.273,0.685,0.466,1.054c1.078,2.028,2.805,3.304,4.338,3.304   c0.107,0,0.2-0.027,0.301-0.041c0.099,0.014,0.2,0.034,0.302,0.034c1.555,0,3.281-1.339,4.311-3.432   c0.183-0.357,0.323-0.704,0.438-1.062c0.254-0.786,0.376-1.492,0.368-2.165c-0.008-0.484-0.07-0.868-0.204-1.235l-0.072-0.204   c-0.081-0.222-0.162-0.428-0.168-0.63c-0.02-0.408,0.382-1.609,0.596-2.254c0.078-0.237,0.146-0.446,0.173-0.543   c0.065-0.148,0.236-0.54-0.126-0.769C36.316,37.978,36.305,37.972,36.301,37.97z M34.832,45.48   c-0.105,0.318-0.232,0.627-0.384,0.931c-0.779,1.577-2.067,2.693-3.174,2.853c-0.109-0.059-0.242-0.075-0.37-0.03   c-0.016,0.001-0.031,0.008-0.044,0.013c-0.039,0.014-0.083,0.009-0.122,0.018c-0.043-0.009-0.095-0.005-0.133-0.018   c-0.011,0-0.016-0.003-0.021-0.003c-0.122-0.036-0.245-0.01-0.356,0.044c-1.116-0.111-2.46-1.194-3.3-2.766   c-0.17-0.324-0.302-0.624-0.404-0.925c-0.24-0.658-0.365-1.276-0.378-1.834c-0.005-0.387,0.032-0.665,0.117-0.935l0.067-0.198   c0.092-0.268,0.198-0.573,0.201-0.911c0-0.161-0.023-0.358-0.073-0.581c0.159,0.165,0.309,0.298,0.443,0.387   c0.293,0.186,0.605,0.271,0.874,0.348l0.195,0.055c0.282,0.083,0.548,0.213,0.835,0.416c0.473,0.332,0.913,0.78,1.312,1.33   c0.128,0.175,0.342,0.206,0.538,0.147c0.192,0.054,0.406,0.018,0.526-0.16c0.387-0.565,0.811-1.028,1.27-1.372   c0.287-0.211,0.548-0.349,0.819-0.446l0.164-0.049c0.281-0.084,0.602-0.18,0.895-0.379c0.135-0.092,0.279-0.227,0.433-0.394   c-0.041,0.216-0.063,0.407-0.05,0.566c0.009,0.354,0.123,0.659,0.225,0.93l0.074,0.186c0.093,0.271,0.138,0.547,0.144,0.923   C35.158,44.192,35.052,44.797,34.832,45.48z"></path><path fill="#a558c8" d="M25.183,71.836c0.086,0.063,0.19,0.097,0.29,0.097c0.148,0,0.297-0.07,0.391-0.199   c7.018-9.52,5.69-18.284,5.63-18.651c-0.04-0.263-0.28-0.44-0.558-0.401c-0.264,0.043-0.443,0.295-0.401,0.558   c0.014,0.089,1.32,8.726-5.453,17.916C24.92,71.374,24.97,71.677,25.183,71.836z"></path><path fill="#a558c8" d="M27.118,62.528c0.082,0.055,0.177,0.084,0.268,0.084c0.156,0,0.313-0.079,0.407-0.219   c0.151-0.226,0.089-0.528-0.136-0.673c-0.151-0.105-15.265-10.563-8.554-33.958c0.075-0.259-0.076-0.528-0.334-0.604   c-0.253-0.078-0.527,0.078-0.6,0.334C11.251,51.599,26.958,62.422,27.118,62.528z"></path><path fill="#a558c8" d="M44.563,33.783c0.028,0,0.063-0.005,0.091-0.008c0.147-0.028,3.7-0.767,11.52-8.368   c0.19-0.188,0.198-0.493,0.008-0.687c-0.185-0.192-0.495-0.2-0.683-0.01c-7.54,7.326-10.995,8.1-11.027,8.108   c-0.26,0.049-0.436,0.303-0.386,0.565C44.13,33.619,44.333,33.783,44.563,33.783z"></path></g></g><g id="SvgjsG1390" featureKey="RGwKHf-0" transform="matrix(1.7388556679073581,0,0,1.7388556679073581,-0.7650964897334827,240.49730851556765)" fill="#0e2a39"><path d="M0.44 18.8 q0.06 -0.56 0.37 -1.13 t0.71 -0.91 q2.06 1.32 4.04 1.32 q0.96 0 1.52 -0.45 t0.56 -1.13 q-0.04 -1.16 -1.54 -1.82 l-2.36 -1 q-1.4 -0.58 -2.1 -1.49 t-0.7 -2.09 q0 -0.9 0.35 -1.64 t1 -1.27 t1.54 -0.83 t1.97 -0.3 q2.2 0 4.32 1.1 q-0.06 1.22 -0.94 2.04 q-2.02 -0.96 -3.52 -0.96 q-0.96 0 -1.47 0.44 t-0.51 1.08 q0 0.92 1.42 1.52 l2.36 1 q1.44 0.6 2.22 1.58 t0.78 2.26 q0 0.9 -0.32 1.67 t-0.97 1.32 t-1.62 0.86 t-2.29 0.31 q-2.56 0 -4.82 -1.48 z M12.4 19.96 l1.06 -13.6 q0.82 -0.14 1.77 -0.14 t1.73 0.14 l1.54 5.54 q0.62 2.48 0.76 3.42 l0.14 0 q0.14 -0.94 0.76 -3.42 l1.52 -5.54 q0.84 -0.14 1.76 -0.14 t1.76 0.14 l1.06 13.6 q-0.54 0.14 -1.29 0.14 t-1.25 -0.08 l-0.38 -6.42 q-0.16 -2.48 -0.16 -4.34 l-0.14 0 l-2.34 8.7 q-0.66 0.1 -1.37 0.1 t-1.37 -0.1 l-2.34 -8.7 l-0.14 0 q-0.04 2.46 -0.16 4.34 l-0.38 6.42 q-0.5 0.08 -1.25 0.08 t-1.29 -0.14 z M36.06 16.9 l-0.98 0.02 l-2.8 0 l-0.98 -0.02 l-0.94 3.12 q-0.42 0.1 -1.19 0.1 t-1.25 -0.18 l-0.1 -0.14 l4.46 -13.46 q0.74 -0.1 1.6 -0.1 t1.5 0.12 l4.38 13.46 q-0.58 0.34 -1.39 0.34 t-1.16 -0.3 t-0.59 -1.14 z M31.96 14.780000000000001 l0.9 -0.02 l1.72 0 l0.84 0.02 l-0.6 -2.04 q-0.68 -2.28 -1.08 -3.88 l-0.12 0 q-0.18 0.86 -0.88 3.38 z M51.10000000000001 10.46 q0 0.66 -0.19 1.25 t-0.53 1.06 t-0.79 0.82 t-0.99 0.53 q0.52 0.18 0.87 0.62 t0.61 1.14 l0.74 2.02 q0.18 0.5 0.4 0.86 t0.54 0.6 q-0.26 0.36 -0.75 0.58 t-1.11 0.22 q-0.6 0 -0.96 -0.36 t-0.66 -1.22 l-0.84 -2.38 q-0.26 -0.7 -0.66 -1.07 t-1.2 -0.37 l-1.22 0 l0 5.24 q-0.28 0.04 -0.62 0.07 t-0.74 0.03 q-0.74 0 -1.3 -0.1 l0 -13.56 l0.14 -0.12 q1.62 -0.04 2.75 -0.06 t1.81 -0.02 q2.16 0 3.43 1.08 t1.27 3.14 z M44.36000000000001 8.28 l0 4.4 q1.04 -0.06 1.84 -0.06 q2.14 0 2.14 -2.16 t-2.14 -2.16 l-1.07 0 t-0.77 -0.02 z M58.34 8.56 l0.02 1.48 l0 9.96 q-0.58 0.1 -1.35 0.1 t-1.35 -0.1 l0 -9.96 l0.02 -1.48 l-1.22 0.02 l-2.22 0 q-0.1 -0.5 -0.1 -1.12 t0.1 -1.12 l9.56 0 q0.14 0.5 0.14 1.09 t-0.34 0.87 t-1.1 0.28 l-0.94 0 l-1.22 -0.02 l0 0 z M74.92 16.9 l-0.98 0.02 l-2.8 0 l-0.98 -0.02 l-0.94 3.12 q-0.42 0.1 -1.19 0.1 t-1.25 -0.18 l-0.1 -0.14 l4.46 -13.46 q0.74 -0.1 1.6 -0.1 t1.5 0.12 l4.38 13.46 q-0.58 0.34 -1.39 0.34 t-1.16 -0.3 t-0.59 -1.14 z M70.82000000000001 14.780000000000001 l0.9 -0.02 l1.72 0 l0.84 0.02 l-0.6 -2.04 q-0.68 -2.28 -1.08 -3.88 l-0.12 0 q-0.18 0.86 -0.88 3.38 z M85.80000000000001 12.52 l3.1 -0.02 q1.84 0 1.84 1.7 l0 5.24 q-2.38 0.84 -5.22 0.84 q-1.44 0 -2.53 -0.5 t-1.81 -1.42 t-1.08 -2.22 t-0.36 -2.88 q0 -1.84 0.52 -3.2 t1.38 -2.25 t1.99 -1.32 t2.37 -0.43 q2.56 0 4.7 1.44 q-0.06 0.58 -0.43 1.13 t-0.81 0.83 q-1.6 -1.14 -3.36 -1.14 q-3.6 0 -3.6 4.9 t3.58 4.9 q1.1 0 2.12 -0.24 l0 -1.78 q0 -0.44 0.01 -0.77 t0.03 -0.55 l-1.36 0 q-0.7 0 -0.99 -0.28 t-0.29 -0.9 q0 -0.52 0.2 -1.08 z M102.94000000000001 10.46 q0 0.66 -0.19 1.25 t-0.53 1.06 t-0.79 0.82 t-0.99 0.53 q0.52 0.18 0.87 0.62 t0.61 1.14 l0.74 2.02 q0.18 0.5 0.4 0.86 t0.54 0.6 q-0.26 0.36 -0.75 0.58 t-1.11 0.22 q-0.6 0 -0.96 -0.36 t-0.66 -1.22 l-0.84 -2.38 q-0.26 -0.7 -0.66 -1.07 t-1.2 -0.37 l-1.22 0 l0 5.24 q-0.28 0.04 -0.62 0.07 t-0.74 0.03 q-0.74 0 -1.3 -0.1 l0 -13.56 l0.14 -0.12 q1.62 -0.04 2.75 -0.06 t1.81 -0.02 q2.16 0 3.43 1.08 t1.27 3.14 z M96.20000000000002 8.28 l0 4.4 q1.04 -0.06 1.84 -0.06 q2.14 0 2.14 -2.16 t-2.14 -2.16 l-1.07 0 t-0.77 -0.02 z M105.76 20 l0 -13.66 q0.5 -0.1 1.31 -0.1 t1.37 0.1 l0 13.66 q-0.56 0.1 -1.37 0.1 t-1.31 -0.1 z M119.08000000000001 11.44 l0 -0.2 q0 -0.66 -0.14 -1.21 t-0.44 -0.96 t-0.77 -0.64 t-1.13 -0.23 q-1.46 0 -2.12 1.31 t-0.66 3.97 q0 2.12 0.81 3.29 t2.21 1.17 q0.74 0 1.61 -0.35 t1.87 -1.11 q0.42 0.28 0.8 0.78 t0.48 0.96 q-0.44 0.44 -1.03 0.81 t-1.27 0.65 t-1.42 0.44 t-1.48 0.16 q-1.48 0 -2.5 -0.57 t-1.67 -1.54 t-0.94 -2.25 t-0.29 -2.7 q0 -1.8 0.44 -3.15 t1.19 -2.24 t1.76 -1.34 t2.15 -0.45 q1.18 0 2.13 0.32 t1.61 0.87 t1.02 1.28 t0.36 1.57 q0 1.5 -1.52 1.5 q-0.22 0 -0.48 -0.03 t-0.58 -0.11 z M134.22000000000003 6.34 l0 8.74 q0 2.5 -1.37 3.85 t-3.87 1.35 q-2.48 0 -3.85 -1.35 t-1.37 -3.85 l0 -8.72 l0.12 -0.14 l1 0 q0.8 0 1.18 0.41 t0.38 1.31 l0 7.16 q0 3.04 2.54 3.04 q2.56 0 2.56 -3.04 l0 -8.76 q0.56 -0.1 1.34 -0.1 t1.34 0.1 z M141.86 17.72 l3.72 0 q0 0.6 -0.08 1.02 q-0.22 1.3 -1.74 1.3 l-4.86 0 q-0.72 0 -1.14 -0.43 t-0.42 -1.17 l0 -12.08 l0.14 -0.14 l1 0 q0.8 0 1.18 0.41 t0.38 1.31 l0 9.86 q0.86 -0.08 1.82 -0.08 z M150.40000000000003 8.56 l0.02 1.48 l0 9.96 q-0.58 0.1 -1.35 0.1 t-1.35 -0.1 l0 -9.96 l0.02 -1.48 l-1.22 0.02 l-2.22 0 q-0.1 -0.5 -0.1 -1.12 t0.1 -1.12 l9.56 0 q0.14 0.5 0.14 1.09 t-0.34 0.87 t-1.1 0.28 l-0.94 0 l-1.22 -0.02 l0 0 z M166.00000000000003 6.34 l0 8.74 q0 2.5 -1.37 3.85 t-3.87 1.35 q-2.48 0 -3.85 -1.35 t-1.37 -3.85 l0 -8.72 l0.12 -0.14 l1 0 q0.8 0 1.18 0.41 t0.38 1.31 l0 7.16 q0 3.04 2.54 3.04 q2.56 0 2.56 -3.04 l0 -8.76 q0.56 -0.1 1.34 -0.1 t1.34 0.1 z M178.54000000000002 10.46 q0 0.66 -0.19 1.25 t-0.53 1.06 t-0.79 0.82 t-0.99 0.53 q0.52 0.18 0.87 0.62 t0.61 1.14 l0.74 2.02 q0.18 0.5 0.4 0.86 t0.54 0.6 q-0.26 0.36 -0.75 0.58 t-1.11 0.22 q-0.6 0 -0.96 -0.36 t-0.66 -1.22 l-0.84 -2.38 q-0.26 -0.7 -0.66 -1.07 t-1.2 -0.37 l-1.22 0 l0 5.24 q-0.28 0.04 -0.62 0.07 t-0.74 0.03 q-0.74 0 -1.3 -0.1 l0 -13.56 l0.14 -0.12 q1.62 -0.04 2.75 -0.06 t1.81 -0.02 q2.16 0 3.43 1.08 t1.27 3.14 z M171.8 8.28 l0 4.4 q1.04 -0.06 1.84 -0.06 q2.14 0 2.14 -2.16 t-2.14 -2.16 l-1.07 0 t-0.77 -0.02 z M183.94000000000003 16.58 l-0.02 1.24 l1.4 -0.04 l4.9 0 q0 0.64 -0.06 0.98 q-0.22 1.28 -1.72 1.28 l-5.62 0 q-0.72 0 -1.13 -0.43 t-0.41 -1.17 l0 -11.96 l0.14 -0.14 l8.34 0 q0.1 0.5 0.1 1.07 t-0.22 1.19 l-5.72 0 l0.02 1.38 l0 2.06 l1.3 -0.02 l3.38 0 q0.16 0.46 0.16 1.1 t-0.16 1.1 l-4.68 0 l0 2.36 z"></path></g>
			</g>
		</svg>
	